<svg width="20" height="20" viewBox="0 0 20 20" fill="none" xmlns="http://www.w3.org/2000/svg">
<path fill-rule="evenodd" clip-rule="evenodd" d="M4.2109 15.9941C2.04462 13.9018 1.17583 10.8035 1.93845 7.88996C2.70107 4.97642 4.97642 2.70107 7.88996 1.93845C10.8035 1.17583 13.9018 2.04462 15.9941 4.2109C19.1521 7.48068 19.107 12.6782 15.8926 15.8926C12.6782 19.107 7.48068 19.1521 4.2109 15.9941ZM14.714 14.714C17.3175 12.1105 17.3175 7.88944 14.714 5.28594C12.1105 2.68245 7.88944 2.68245 5.28594 5.28594C2.68245 7.88944 2.68245 12.1105 5.28594 14.714C7.88944 17.3175 12.1105 17.3175 14.714 14.714ZM8.94946 10.6162L7.0124 8.7183V8.71008L5.83332 9.87675L8.94946 12.9167L13.75 8.24999L12.5709 7.08332L8.94946 10.6162Z" fill="white"/>
</svg>
