<svg width="188" height="45" viewBox="0 0 188 45" fill="none" xmlns="http://www.w3.org/2000/svg">
<path d="M53.6649 36L47.8214 14.233H52.0871L56.6743 32.7861H55.564L60.3557 14.233H64.4753L69.2377 32.7861H68.1275L72.7146 14.233H76.9803L71.1369 36H66.579L61.7581 17.9437H63.0437L58.2228 36H53.6649Z" fill="white"/>
<path d="M79.3917 36V14.233H88.566C90.0074 14.233 91.2345 14.4863 92.2473 14.9927C93.2797 15.4797 94.0686 16.1809 94.614 17.0963C95.1788 17.9923 95.4613 19.0831 95.4613 20.3687C95.4613 21.3621 95.1886 22.297 94.6432 23.1736C94.1173 24.0306 93.27 24.7416 92.1013 25.3064V23.4657C93.1726 23.8748 94.0199 24.3812 94.6432 24.985C95.2665 25.5889 95.7047 26.2609 95.958 27.001C96.2112 27.7412 96.3378 28.5203 96.3378 29.3384C96.3378 31.4226 95.6463 33.0588 94.2634 34.247C92.8999 35.4157 91.0007 36 88.566 36H79.3917ZM83.3653 32.4939H88.975C90.0074 32.4939 90.8254 32.2115 91.4293 31.6466C92.0526 31.0623 92.3642 30.2929 92.3642 29.3384C92.3642 28.384 92.0526 27.6146 91.4293 27.0303C90.8254 26.4459 90.0074 26.1537 88.975 26.1537H83.3653V32.4939ZM83.3653 22.6769H88.7705C89.5886 22.6769 90.2411 22.4431 90.728 21.9757C91.215 21.4887 91.4585 20.8654 91.4585 20.1057C91.4585 19.3461 91.215 18.7423 90.728 18.2943C90.2411 17.8463 89.5886 17.6223 88.7705 17.6223H83.3653V22.6769Z" fill="white"/>
<path d="M102.879 36V17.7391H97.2399V14.233H112.433V17.7391H106.882V36H102.879Z" fill="white"/>
<path d="M120.254 36.3506C118.696 36.3506 117.274 35.9903 115.988 35.2696C114.722 34.5489 113.709 33.5652 112.949 32.3186C112.209 31.072 111.839 29.6501 111.839 28.0529C111.839 26.4557 112.209 25.0337 112.949 23.7871C113.709 22.5405 114.722 21.5569 115.988 20.8362C117.254 20.1155 118.676 19.7551 120.254 19.7551C121.812 19.7551 123.224 20.1155 124.49 20.8362C125.756 21.5569 126.76 22.5405 127.5 23.7871C128.259 25.0143 128.639 26.4362 128.639 28.0529C128.639 29.6501 128.259 31.072 127.5 32.3186C126.74 33.5652 125.727 34.5489 124.461 35.2696C123.195 35.9903 121.793 36.3506 120.254 36.3506ZM120.254 32.8445C121.111 32.8445 121.861 32.64 122.504 32.231C123.166 31.8219 123.682 31.257 124.052 30.5363C124.442 29.7962 124.636 28.9683 124.636 28.0529C124.636 27.1179 124.442 26.2998 124.052 25.5986C123.682 24.8779 123.166 24.313 122.504 23.904C121.861 23.4755 121.111 23.2612 120.254 23.2612C119.377 23.2612 118.608 23.4755 117.946 23.904C117.283 24.313 116.757 24.8779 116.368 25.5986C115.998 26.2998 115.813 27.1179 115.813 28.0529C115.813 28.9683 115.998 29.7962 116.368 30.5363C116.757 31.257 117.283 31.8219 117.946 32.231C118.608 32.64 119.377 32.8445 120.254 32.8445Z" fill="white"/>
<path d="M139.314 36.3506C137.755 36.3506 136.333 35.9903 135.048 35.2696C133.782 34.5489 132.769 33.5652 132.009 32.3186C131.269 31.072 130.899 29.6501 130.899 28.0529C130.899 26.4557 131.269 25.0337 132.009 23.7871C132.769 22.5405 133.782 21.5569 135.048 20.8362C136.314 20.1155 137.736 19.7551 139.314 19.7551C140.872 19.7551 142.284 20.1155 143.55 20.8362C144.816 21.5569 145.819 22.5405 146.56 23.7871C147.319 25.0143 147.699 26.4362 147.699 28.0529C147.699 29.6501 147.319 31.072 146.56 32.3186C145.8 33.5652 144.787 34.5489 143.521 35.2696C142.255 35.9903 140.852 36.3506 139.314 36.3506ZM139.314 32.8445C140.171 32.8445 140.921 32.64 141.563 32.231C142.226 31.8219 142.742 31.257 143.112 30.5363C143.501 29.7962 143.696 28.9683 143.696 28.0529C143.696 27.1179 143.501 26.2998 143.112 25.5986C142.742 24.8779 142.226 24.313 141.563 23.904C140.921 23.4755 140.171 23.2612 139.314 23.2612C138.437 23.2612 137.668 23.4755 137.005 23.904C136.343 24.313 135.817 24.8779 135.428 25.5986C135.058 26.2998 134.873 27.1179 134.873 28.0529C134.873 28.9683 135.058 29.7962 135.428 30.5363C135.817 31.257 136.343 31.8219 137.005 32.231C137.668 32.64 138.437 32.8445 139.314 32.8445Z" fill="white"/>
<path d="M150.602 36V13.8824H154.429V36H150.602Z" fill="white"/>
<path d="M164.011 36.3506C162.316 36.3506 160.836 35.9513 159.57 35.1527C158.323 34.3346 157.466 33.2341 156.999 31.8511L159.862 30.4779C160.271 31.3739 160.836 32.0751 161.557 32.5816C162.297 33.088 163.115 33.3412 164.011 33.3412C164.712 33.3412 165.267 33.1854 165.676 32.8737C166.085 32.5621 166.29 32.153 166.29 31.6466C166.29 31.335 166.202 31.0817 166.027 30.887C165.871 30.6727 165.647 30.4974 165.355 30.361C165.082 30.2052 164.78 30.0786 164.449 29.9812L161.849 29.2508C160.505 28.8612 159.482 28.2671 158.781 27.4685C158.099 26.6699 157.758 25.7252 157.758 24.6344C157.758 23.6605 158.002 22.8132 158.489 22.0925C158.995 21.3523 159.687 20.7777 160.563 20.3687C161.459 19.9597 162.482 19.7551 163.631 19.7551C165.131 19.7551 166.455 20.1155 167.605 20.8362C168.754 21.5569 169.572 22.5697 170.059 23.8748L167.137 25.248C166.865 24.5273 166.407 23.9527 165.764 23.5242C165.121 23.0957 164.401 22.8814 163.602 22.8814C162.959 22.8814 162.453 23.0275 162.083 23.3197C161.713 23.6118 161.527 23.9917 161.527 24.4591C161.527 24.7513 161.605 25.0045 161.761 25.2188C161.917 25.433 162.131 25.6083 162.404 25.7447C162.696 25.881 163.027 26.0077 163.397 26.1245L165.939 26.8842C167.244 27.2737 168.247 27.8581 168.949 28.6372C169.669 29.4163 170.03 30.3708 170.03 31.5005C170.03 32.455 169.777 33.3023 169.27 34.0424C168.764 34.7631 168.062 35.328 167.166 35.737C166.27 36.1461 165.219 36.3506 164.011 36.3506Z" fill="white"/>
<path d="M183.012 20.104C182.16 20.104 181.38 19.9 180.672 19.492C179.976 19.072 179.418 18.514 178.998 17.818C178.59 17.11 178.386 16.336 178.386 15.496C178.386 14.644 178.59 13.87 178.998 13.174C179.418 12.478 179.976 11.926 180.672 11.518C181.38 11.098 182.16 10.888 183.012 10.888C183.648 10.888 184.242 11.008 184.794 11.248C185.358 11.488 185.85 11.818 186.27 12.238C186.69 12.658 187.02 13.15 187.26 13.714C187.5 14.266 187.62 14.86 187.62 15.496C187.62 16.336 187.41 17.11 186.99 17.818C186.582 18.514 186.03 19.072 185.334 19.492C184.638 19.9 183.864 20.104 183.012 20.104ZM183.012 19.186C183.696 19.186 184.314 19.024 184.866 18.7C185.43 18.376 185.874 17.932 186.198 17.368C186.534 16.804 186.702 16.18 186.702 15.496C186.702 14.812 186.534 14.194 186.198 13.642C185.874 13.078 185.43 12.634 184.866 12.31C184.314 11.974 183.696 11.806 183.012 11.806C182.316 11.806 181.686 11.974 181.122 12.31C180.57 12.634 180.126 13.078 179.79 13.642C179.466 14.194 179.304 14.812 179.304 15.496C179.304 16.18 179.466 16.804 179.79 17.368C180.126 17.92 180.57 18.364 181.122 18.7C181.686 19.024 182.316 19.186 183.012 19.186ZM181.338 17.908V13.048H183.21C183.702 13.048 184.104 13.186 184.416 13.462C184.74 13.726 184.902 14.104 184.902 14.596C184.902 14.896 184.83 15.172 184.686 15.424C184.554 15.664 184.338 15.85 184.038 15.982L185.172 17.908H184.128L183.138 16.144H182.256V17.908H181.338ZM182.256 15.334H183.21C183.45 15.334 183.636 15.262 183.768 15.118C183.912 14.974 183.984 14.8 183.984 14.596C183.984 14.38 183.912 14.206 183.768 14.074C183.636 13.942 183.45 13.876 183.21 13.876H182.256V15.334Z" fill="white"/>
<path d="M2.65137 38.5539L7.11455 34.0033V27.3293L2.65137 31.8799V38.5539ZM24.8873 27.3293V34.0033L29.3504 38.5539V31.8817L24.8873 27.3311V27.3293ZM11.8394 37.9295V10.9296L9.7641 13.0437V37.9295H11.8394ZM17.5092 4.79845L16.0009 3.26057L14.4908 4.79845V42.293H17.5092V4.79845ZM20.1624 10.9277V37.9295H22.2323V13.0418L20.1624 10.9277ZM19.7663 3.2754C19.7935 3.30134 19.819 3.32913 19.8426 3.35878C19.8589 3.3773 19.8717 3.39213 19.8826 3.4088L19.8898 3.41807L19.9062 3.4403L19.9225 3.46439L19.928 3.4718L19.9389 3.49033L19.9607 3.51997L19.9662 3.53294L19.9752 3.54591L19.9825 3.56074L19.9916 3.57556L19.9989 3.58853L20.0098 3.61077L20.0152 3.62003L20.0225 3.63671L20.0298 3.64597L20.0388 3.67006L20.0425 3.67747C20.1206 3.84978 20.1642 4.04248 20.1642 4.24259V7.10897L24.4911 11.5243C24.7346 11.7689 24.8873 12.1098 24.8873 12.4878V23.5087L31.6038 30.3624C31.851 30.6051 32 30.9479 32 31.3259V41.8223C32 42.1707 31.8728 42.5135 31.6129 42.7784C31.095 43.3065 30.2554 43.3065 29.7375 42.7784L24.8873 37.8313V39.2858C24.8873 40.0325 24.293 40.6365 23.5607 40.6365H20.1624V43.6474C20.1624 44.3941 19.5682 45 18.834 45H13.1642C12.4336 45 11.8394 44.3941 11.8394 43.6474V40.6365H8.43932C7.70697 40.6365 7.11273 40.0325 7.11273 39.2858V37.8313L2.26248 42.7784C1.74456 43.3065 0.904993 43.3065 0.387076 42.7784C0.127209 42.5135 0 42.1688 0 41.8223V31.3259C0 30.9479 0.149014 30.607 0.394343 30.3624L7.11273 23.5087V12.4878C7.11273 12.1098 7.26538 11.7689 7.50889 11.5243L11.8394 7.10897V4.24259C11.8394 3.86461 11.9902 3.52739 12.2356 3.28096L15.0614 0.396049C15.5793 -0.132016 16.4189 -0.132016 16.9386 0.396049L19.7644 3.28096L19.7663 3.2754Z" fill="#FAFAFA"/>
</svg>
