<svg width="57" height="57" viewBox="0 0 57 57" fill="none" xmlns="http://www.w3.org/2000/svg">
<path opacity="0.4" d="M38.2105 5.31396H18.7685C11.7164 5.31396 7.61044 9.44315 7.61044 16.5184V40.4816C7.61044 47.6729 11.7164 51.7093 18.7685 51.7093H38.2105C45.3763 51.7093 49.3663 47.6729 49.3663 40.4816V16.5184C49.3663 9.44315 45.3763 5.31396 38.2105 5.31396Z" fill="#24D69C"/>
<path fill-rule="evenodd" clip-rule="evenodd" d="M19.3948 16.1008V16.124C18.395 16.124 17.5854 16.9359 17.5854 17.9334C17.5854 18.9309 18.395 19.7429 19.3948 19.7429H26.3286C27.3285 19.7429 28.1404 18.9309 28.1404 17.9079C28.1404 16.9127 27.3285 16.1008 26.3286 16.1008H19.3948ZM37.5818 30.2282H19.3948C18.395 30.2282 17.5854 29.4163 17.5854 28.4188C17.5854 27.4213 18.395 26.6071 19.3948 26.6071H37.5818C38.5793 26.6071 39.3912 27.4213 39.3912 28.4188C39.3912 29.4163 38.5793 30.2282 37.5818 30.2282ZM37.5818 40.8296H19.3948C18.6989 40.9223 18.0262 40.5744 17.655 39.9944C17.2839 39.3913 17.2839 38.6258 17.655 38.0458C18.0262 37.4427 18.6989 37.1179 19.3948 37.1875H37.5818C38.5074 37.2803 39.2057 38.069 39.2057 39.0201C39.2057 39.9457 38.5074 40.7368 37.5818 40.8296Z" fill="#24D69C"/>
</svg>
