<svg width="57" height="57" viewBox="0 0 57 57" fill="none" xmlns="http://www.w3.org/2000/svg">
<path opacity="0.4" d="M46.35 24.1015C45.5142 24.1016 44.8336 23.4176 44.8225 22.5664V20.3259C44.8497 18.4242 44.1325 16.5896 42.8295 15.2273C41.5264 13.865 39.7446 13.0871 37.8774 13.0652H36.2481C35.4045 13.0652 34.7206 12.3686 34.7206 11.5094C34.7206 10.6501 35.4045 9.95349 36.2481 9.95349H37.8774C43.4538 10.0217 47.939 14.6457 47.9386 20.3259V22.5456C47.9496 22.9544 47.7978 23.3504 47.5178 23.6434C47.2378 23.9364 46.8533 24.1017 46.4518 24.1015H46.35Z" fill="#24D69C"/>
<path opacity="0.4" d="M10.7082 24.1015C10.305 24.1071 9.91641 23.9478 9.62934 23.6593C9.34228 23.3708 9.1807 22.9771 9.18074 22.5664V20.3259C9.14807 17.5865 10.1936 14.9478 12.084 12.9989C13.9744 11.0501 16.5522 9.95329 19.2419 9.95349H20.912C21.7556 9.95349 22.4395 10.6501 22.4395 11.5094C22.4395 12.3686 21.7556 13.0652 20.912 13.0652H19.2623C17.3792 13.0594 15.5731 13.8258 14.2512 15.1918C12.9293 16.5577 12.2029 18.4082 12.2357 20.3259V22.5664C12.2246 23.4176 11.544 24.1016 10.7082 24.1015Z" fill="#24D69C"/>
<path d="M47.8775 33.2915V39.1208C47.8123 44.7288 43.3826 49.2682 37.8774 49.3688H36.2277C35.6436 49.4378 35.0725 49.1593 34.7591 48.6525C34.4458 48.1458 34.4458 47.5008 34.7591 46.9941C35.0725 46.4873 35.6436 46.2088 36.2277 46.2778H37.8774C41.7613 46.2664 44.9039 43.0561 44.9039 39.1001V33.2915H47.8775Z" fill="#24D69C"/>
<path d="M22.4394 47.8337C22.4285 48.6883 21.751 49.3784 20.9119 49.3895H19.2419C13.6655 49.3214 9.18032 44.6974 9.18073 39.0171V33.2915H12.2357V39.1208C12.2357 43.0688 15.3659 46.2757 19.2419 46.2986H20.9119C21.3152 46.293 21.7038 46.4523 21.9908 46.7408C22.2779 47.0293 22.4395 47.4229 22.4394 47.8337Z" fill="#24D69C"/>
<path d="M51.686 31.7356C51.686 32.5949 51.0021 33.2914 50.1585 33.2914H6.81818C5.97457 33.2914 5.29068 32.5949 5.29068 31.7356C5.29068 30.8763 5.97457 30.1797 6.81818 30.1797H50.0974C50.513 30.1628 50.9174 30.3192 51.2173 30.6128C51.5171 30.9065 51.6864 31.3119 51.686 31.7356Z" fill="#24D69C"/>
<path opacity="0.4" d="M39.0994 26.4249V23.7488C39.0994 22.4559 38.5951 21.2159 37.6976 20.3016C36.8 19.3874 35.5826 18.8738 34.3132 18.8738H22.6635C20.0201 18.8738 17.8773 21.0564 17.8773 23.7488V26.4249C17.8878 26.7412 18.1371 26.9951 18.4476 27.0058H38.5291C38.8396 26.9951 39.0889 26.7412 39.0994 26.4249Z" fill="#24D69C"/>
<path d="M39.0994 33.2915V35.6149C39.0994 38.3073 36.9565 40.49 34.3132 40.49H22.6635C20.0201 40.49 17.8773 38.3073 17.8773 35.6149V33.2915H39.0994Z" fill="#24D69C"/>
</svg>
