<svg width="32" height="32" viewBox="0 0 32 32" fill="none" xmlns="http://www.w3.org/2000/svg">
<path d="M18.4374 16.0001L13.724 20.7147C13.4811 20.9662 13.3468 21.303 13.3498 21.6526C13.3528 22.0022 13.4931 22.3366 13.7403 22.5838C13.9875 22.8311 14.3219 22.9713 14.6715 22.9743C15.0211 22.9774 15.3579 22.843 15.6094 22.6001L21.2667 16.9427C21.5166 16.6927 21.6571 16.3536 21.6571 16.0001C21.6571 15.6465 21.5166 15.3075 21.2667 15.0574L15.6094 9.40008C15.3579 9.1572 15.0211 9.02281 14.6715 9.02585C14.3219 9.02889 13.9875 9.16911 13.7403 9.41632C13.4931 9.66353 13.3528 9.99795 13.3498 10.3475C13.3468 10.6971 13.4811 11.0339 13.724 11.2854L18.4374 16.0001ZM16 29.3334C8.63602 29.3334 2.66669 23.3641 2.66669 16.0001C2.66669 8.63608 8.63602 2.66675 16 2.66675C23.364 2.66675 29.3334 8.63608 29.3334 16.0001C29.3334 23.3641 23.364 29.3334 16 29.3334Z" fill="#4C2272"/>
</svg>
