<svg width="33" height="33" viewBox="0 0 33 33" fill="none" xmlns="http://www.w3.org/2000/svg">
<path d="M16.4824 0.50009C25.2639 0.470751 32.4795 7.64016 32.5 16.4303C32.5204 25.2427 25.5075 32.3757 16.727 32.4984C7.82636 32.6229 0.568955 25.5326 0.500489 16.6579C0.432023 7.70862 7.56673 0.530318 16.4824 0.50009ZM24.0893 12.0561C24.0893 12.2606 24.0893 12.3806 24.0893 12.4998C24.0893 13.989 24.0866 15.4773 24.0911 16.9664C24.0928 17.4581 24.356 17.8075 24.7757 17.908C25.3893 18.0555 25.9068 17.6306 25.9103 16.954C25.9174 15.3875 25.9165 13.8209 25.9121 12.2544C25.9068 10.5136 24.7455 9.36139 22.9983 9.3605C18.6093 9.35872 14.2195 9.35872 9.83055 9.3605C8.06199 9.3605 6.8954 10.5367 6.89451 12.3122C6.89362 15.0345 6.93008 17.7568 6.88118 20.4782C6.85183 22.1035 8.0451 23.5046 9.89013 23.4779C13.0004 23.4344 16.1125 23.4664 19.2237 23.4655C19.3571 23.4655 19.4914 23.4646 19.623 23.445C20.0382 23.3855 20.345 23.0548 20.3823 22.6378C20.4357 22.0341 20.0249 21.6296 19.3429 21.6296C16.1979 21.6278 13.0538 21.6296 9.9088 21.6287C9.05964 21.6287 8.73154 21.3069 8.73154 20.4685C8.73065 17.8022 8.73154 15.135 8.73154 12.4687C8.73154 12.3549 8.74399 12.2402 8.75288 12.0837C8.90937 12.1904 9.01963 12.2624 9.12633 12.3389C10.9607 13.6493 12.7942 14.9607 14.6285 16.2712C15.8316 17.13 16.9857 17.1283 18.1976 16.2641C19.2193 15.5359 20.2401 14.8051 21.2608 14.0752C22.1811 13.4182 23.1005 12.7612 24.0893 12.0553V12.0561ZM24.2911 21.8376C24.5686 21.8376 24.8104 21.8394 25.0523 21.8376C25.6782 21.8332 26.0979 21.4651 26.0988 20.9219C26.0997 20.3876 25.7022 20.0222 25.0878 20.0026C24.8353 19.9946 24.5828 20.0008 24.292 20.0008C24.292 19.7243 24.2947 19.4834 24.292 19.2416C24.2849 18.613 23.9186 18.1933 23.3753 18.1889C22.8338 18.1845 22.4568 18.6059 22.447 19.2309C22.4434 19.4807 22.447 19.7314 22.447 20.0053C22.1153 20.0053 21.837 19.991 21.5614 20.0079C21.0039 20.0426 20.6233 20.4382 20.6393 20.945C20.6553 21.4527 21.0581 21.8252 21.6103 21.8367C21.8833 21.8421 22.1562 21.8376 22.4488 21.8376C22.4488 22.1621 22.4372 22.4395 22.4514 22.716C22.4799 23.2717 22.8667 23.6495 23.3824 23.6442C23.8946 23.638 24.2707 23.2495 24.2902 22.692C24.3 22.4262 24.292 22.1595 24.292 21.8385L24.2911 21.8376Z" fill="#D9D9D9"/>
</svg>
